<svg width="103" height="103" viewBox="0 0 103 103" fill="none" xmlns="http://www.w3.org/2000/svg">
<path fill-rule="evenodd" clip-rule="evenodd" d="M57.3741 37.191C65.9555 26.4348 81.7944 26.4348 90.3758 37.191C96.9922 45.4842 96.9922 57.5194 90.3758 65.8126C81.7944 76.5688 65.9555 76.5688 57.3741 65.8126L39.0354 42.8263C33.8738 36.3565 24.3834 36.3565 19.2218 42.8263C15.215 47.8486 15.215 55.155 19.2218 60.1773C24.3835 66.6471 33.8738 66.6471 39.0354 60.1773L45.492 52.0844L46.9298 53.2315L40.4732 61.3244C34.5753 68.7171 23.682 68.7171 17.784 61.3244C13.2419 55.6311 13.2419 47.3725 17.784 41.6792C23.682 34.2865 34.5753 34.2865 40.4732 41.6792L58.8119 64.6656C66.6569 74.4988 81.093 74.4988 88.938 64.6656C95.0191 57.0433 95.0191 45.9603 88.938 38.338C81.093 28.5048 66.6569 28.5048 58.8119 38.3381L53.0446 45.567L51.6068 44.4199L57.3741 37.191ZM12.6278 37.191C21.2092 26.4348 37.0481 26.4348 45.6295 37.191L63.9681 60.1773C69.1298 66.6471 78.6201 66.6471 83.7818 60.1773C87.7886 55.155 87.7886 47.8486 83.7818 42.8263C78.6201 36.3565 69.1298 36.3565 63.9681 42.8263L57.5115 50.9192L56.0738 49.7721L62.5304 41.6792C68.4283 34.2865 79.3216 34.2865 85.2195 41.6792C89.7617 47.3725 89.7617 55.6311 85.2195 61.3244C79.3216 68.7171 68.4283 68.7171 62.5304 61.3244L44.1917 38.3381C36.3467 28.5048 21.9106 28.5048 14.0656 38.338C7.98451 45.9603 7.98451 57.0433 14.0656 64.6656C21.9106 74.4988 36.3467 74.4988 44.1917 64.6656L49.959 57.4366L51.3968 58.5837L45.6295 65.8126C37.0481 76.5688 21.2092 76.5688 12.6278 65.8126C6.01139 57.5194 6.01139 45.4842 12.6278 37.191Z" fill="url(#paint0_linear_9_220)"></path>
<defs>
<linearGradient id="paint0_linear_9_220" x1="29.5836" y1="19.2793" x2="26.2814" y2="78.665" gradientUnits="userSpaceOnUse">
<stop offset="0.155966" stop-color="#7B7FF5"></stop>
<stop offset="0.449" stop-color="#5A5FF2"></stop>
<stop offset="0.759086" stop-color="#F08068"></stop>
<stop offset="1" stop-color="#F0A468"></stop>
<stop offset="1" stop-color="#F0A468"></stop>
</linearGradient>
</defs>
</svg>